<?xml version="1.0" encoding="utf-8"?>
<!-- Generator: Adobe Illustrator 18.1.1, SVG Export Plug-In . SVG Version: 6.00 Build 0)  -->
<svg version="1.1" id="Layer_1" xmlns="http://www.w3.org/2000/svg" xmlns:xlink="http://www.w3.org/1999/xlink" x="0px" y="0px"
	 viewBox="0 0 248 90" enable-background="new 0 0 248 90" xml:space="preserve">
<g>
	<linearGradient id="SVGID_1_" gradientUnits="userSpaceOnUse" x1="10.2379" y1="15.4919" x2="72.2656" y2="77.5196">
		<stop  offset="0" style="stop-color:#FF1759"/>
		<stop  offset="6.348050e-002" style="stop-color:#FF1C58"/>
		<stop  offset="0.363" style="stop-color:#FF2F53"/>
		<stop  offset="0.6714" style="stop-color:#FF3A51"/>
		<stop  offset="1" style="stop-color:#FF3E50"/>
	</linearGradient>
	<path fill="url(#SVGID_1_)" d="M39.7,0l-39,22.5v45l39,22.5l39-22.5v-45L39.7,0z M6.8,26l33-19l30,17.3L6.8,60.6V26z M9.8,65.8
		l57.6-33.3L38.6,82.4L9.8,65.8z M72.7,64L47.8,78.4l24.9-43.2V64z"/>
	<path fill="#1A1615" d="M105.7,62.1c-0.6-0.6-0.9-1.3-0.9-2.1V17.5h-8.8V60c0,3.2,1.2,6,3.5,8.3c2.3,2.3,5.1,3.4,8.3,3.4h1.3V63
		h-1.3C107,63,106.3,62.7,105.7,62.1z"/>
	<path fill="#1A1615" d="M135.7,33.4c-5.2,0-9.8,1.9-13.5,5.6s-5.6,8.3-5.6,13.6c0,5.2,1.9,9.8,5.6,13.5c3.7,3.7,8.3,5.6,13.5,5.6
		c5.3,0,9.8-1.9,13.6-5.6c3.7-3.7,5.6-8.3,5.6-13.5c0-5.3-1.9-9.8-5.6-13.6C145.6,35.3,141,33.4,135.7,33.4z M135.7,63
		c-2.9,0-5.3-1-7.3-3c-2-2-3-4.4-3-7.3c0-2.9,1-5.3,3-7.4c2-2,4.4-3,7.3-3c2.9,0,5.3,1,7.3,3c2.1,2.1,3.1,4.5,3.1,7.4
		c0,2.9-1,5.3-3.1,7.3C141,62,138.6,63,135.7,63z"/>
	<path fill="#1A1615" d="M181.4,33.5c-5.2,0-9.8,1.9-13.5,5.6c-3.7,3.7-5.6,8.3-5.6,13.6c0,5.2,1.9,9.8,5.6,13.5
		c3.7,3.7,8.3,5.6,13.5,5.6c3.8,0,7.3-1.1,10.4-3.2v2.2c0,2.9-1,5.3-3,7.3c-2.1,2-4.5,3-7.4,3h-1V90h1c5.3,0,9.8-1.9,13.6-5.6
		c3.7-3.7,5.6-8.3,5.6-13.5V52.7c0-5.3-1.9-9.8-5.6-13.6C191.2,35.4,186.6,33.5,181.4,33.5z M188.8,60c-2,2-4.5,3-7.4,3
		c-2.9,0-5.3-1-7.3-3c-2-2-3-4.4-3-7.3c0-2.9,1-5.3,3-7.4c2-2,4.4-3,7.3-3c2.9,0,5.3,1,7.4,3c2,2.1,3,4.5,3,7.4
		C191.8,55.6,190.8,58,188.8,60z"/>
	<path fill="#1A1615" d="M241.6,39.1c-3.7-3.7-8.3-5.6-13.6-5.6c-5.2,0-9.8,1.9-13.5,5.6c-3.7,3.7-5.6,8.3-5.6,13.6
		c0,5.2,1.9,9.8,5.6,13.5c3.7,3.7,8.3,5.6,13.5,5.6c5.3,0,9.8-1.9,13.6-5.6s5.6-8.3,5.6-13.5C247.2,47.4,245.3,42.8,241.6,39.1z
		 M228,63c-2.9,0-5.3-1-7.3-3c-2-2-3-4.4-3-7.3c0-2.9,1-5.3,3-7.4c2-2,4.4-3,7.3-3c2.9,0,5.3,1,7.3,3c2.1,2.1,3.1,4.5,3.1,7.4
		c0,2.9-1,5.3-3.1,7.3C233.3,62,230.9,63,228,63z"/>
</g>
</svg>
