<?xml version="1.0" encoding="utf-8"?>
<!-- Generator: Adobe Illustrator 18.1.1, SVG Export Plug-In . SVG Version: 6.00 Build 0)  -->
<svg version="1.1" id="Layer_1" xmlns="http://www.w3.org/2000/svg" xmlns:xlink="http://www.w3.org/1999/xlink" x="0px" y="0px"
	 viewBox="0 0 50 50" enable-background="new 0 0 50 50" xml:space="preserve">
<path fill="#666666" d="M25,1C12.3,1,2,9.7,2,20.5c0,10,9.1,18.4,20.7,19.4l-1.2,6.4c0,0,0,0.1,0,0.1l-0.1,0.8
	c-0.1,0.7,0.2,1.4,0.8,1.7c0.2,0.1,0.5,0.2,0.7,0.2c0.4,0,0.8-0.2,1.1-0.5l9-9.7C42,35.9,48,28.6,48,20.5C48,9.7,37.7,1,25,1z
	 M30.8,35.9l-5.3,5.8l0.7-3.5c0.1-0.4,0-0.9-0.3-1.2c-0.3-0.3-0.7-0.5-1.1-0.5C14.3,36.2,6,29.2,6,20.7C6,12,14.5,5,25,5
	C35.5,5,44,12,44,20.7c0,6.6-5.1,12.5-12.6,14.8C31.2,35.5,31,35.7,30.8,35.9z"/>
</svg>
