<?xml version="1.0" encoding="utf-8"?>
<!-- Generator: Adobe Illustrator 18.1.1, SVG Export Plug-In . SVG Version: 6.00 Build 0)  -->
<svg version="1.1" id="Layer_1" xmlns="http://www.w3.org/2000/svg" xmlns:xlink="http://www.w3.org/1999/xlink" x="0px" y="0px"
	 viewBox="0 0 50 50" enable-background="new 0 0 50 50" xml:space="preserve">
<g>
	<path fill="#ff1759" d="M17.6,4c0.9,0,1.6,0.7,1.6,1.6v12c0,0.9-0.7,1.6-1.6,1.6h-12c-0.9,0-1.6-0.7-1.6-1.6v-12C4,4.7,4.7,4,5.6,4
		H17.6 M17.6,0h-12C2.5,0,0,2.5,0,5.6v12c0,3.1,2.5,5.6,5.6,5.6h12c3.1,0,5.6-2.5,5.6-5.6v-12C23.2,2.5,20.7,0,17.6,0L17.6,0z"/>
	<path fill="#ff1759" d="M44.4,4C45.3,4,46,4.7,46,5.6v12c0,0.9-0.7,1.6-1.6,1.6h-12c-0.9,0-1.6-0.7-1.6-1.6v-12
		c0-0.9,0.7-1.6,1.6-1.6H44.4 M44.4,0h-12c-3.1,0-5.6,2.5-5.6,5.6v12c0,3.1,2.5,5.6,5.6,5.6h12c3.1,0,5.6-2.5,5.6-5.6v-12
		C50,2.5,47.5,0,44.4,0L44.4,0z"/>
	<path fill="#ff1759" d="M17.6,30.8c0.9,0,1.6,0.7,1.6,1.6v12c0,0.9-0.7,1.6-1.6,1.6h-12C4.7,46,4,45.3,4,44.4v-12
		c0-0.9,0.7-1.6,1.6-1.6H17.6 M17.6,26.8h-12c-3.1,0-5.6,2.5-5.6,5.6v12C0,47.5,2.5,50,5.6,50h12c3.1,0,5.6-2.5,5.6-5.6v-12
		C23.2,29.3,20.7,26.8,17.6,26.8L17.6,26.8z"/>
	<path fill="#ff1759" d="M44.4,30.8c0.9,0,1.6,0.7,1.6,1.6v12c0,0.9-0.7,1.6-1.6,1.6h-12c-0.9,0-1.6-0.7-1.6-1.6v-12
		c0-0.9,0.7-1.6,1.6-1.6H44.4 M44.4,26.8h-12c-3.1,0-5.6,2.5-5.6,5.6v12c0,3.1,2.5,5.6,5.6,5.6h12c3.1,0,5.6-2.5,5.6-5.6v-12
		C50,29.3,47.5,26.8,44.4,26.8L44.4,26.8z"/>
</g>
</svg>
