<?xml version="1.0" encoding="utf-8"?>
<!-- Generator: Adobe Illustrator 18.1.1, SVG Export Plug-In . SVG Version: 6.00 Build 0)  -->
<svg version="1.1" id="Layer_1" xmlns="http://www.w3.org/2000/svg" xmlns:xlink="http://www.w3.org/1999/xlink" x="0px" y="0px"
	 viewBox="0 0 50 50" enable-background="new 0 0 50 50" xml:space="preserve">
<g>
	<path fill="#666666" d="M31.1,1c-9.9,0-17.9,8-17.9,17.9c0,3.7,1.1,7.3,3.3,10.4l0.3,0.4L1,45.5L4.5,49l15.8-15.8l0.4,0.3
		c3,2.2,6.6,3.3,10.4,3.3c9.9,0,17.9-8,17.9-17.9C49,9,41,1,31.1,1z M31.1,31.8c-7.1,0-12.9-5.8-12.9-12.9S24,6,31.1,6
		S44,11.8,44,18.9S38.2,31.8,31.1,31.8z"/>
</g>
</svg>
