<?xml version="1.0" encoding="utf-8"?>
<!-- Generator: Adobe Illustrator 18.1.1, SVG Export Plug-In . SVG Version: 6.00 Build 0)  -->
<svg version="1.1" id="Layer_1" xmlns="http://www.w3.org/2000/svg" xmlns:xlink="http://www.w3.org/1999/xlink" x="0px" y="0px"
	 viewBox="0 0 50 50" enable-background="new 0 0 50 50" xml:space="preserve">
<path fill="#666666" d="M41.1,33.1c-2.4,0-4.5,1.1-6,2.8l-18.4-9.2c0.1-0.6,0.2-1.1,0.2-1.7c0-0.7-0.1-1.2-0.2-1.8l17.4-9
	c1.4,1.6,3.5,2.7,5.9,2.7c4.3,0,8-3.5,8-8S44.4,1,39.9,1s-8,3.5-8,8c0,0.7,0.1,1.2,0.2,1.8l-17.4,9c-1.4-1.6-3.5-2.7-5.9-2.7
	C4.6,17.1,1,20.7,1,25s3.5,8,8,8c2.4,0,4.5-1.1,6-2.8l18.3,9.2c-0.1,0.6-0.2,1.1-0.2,1.7c0,4.3,3.5,8,8,8s8-3.5,8-8
	S45.4,33.1,41.1,33.1z M39.9,4.9c2.2,0,4.1,1.8,4.1,4.1s-1.8,4.1-4.1,4.1c-0.9,0-1.6-0.3-2.3-0.8c-1.1-0.8-1.7-1.9-1.7-3.4
	c0,0,0,0,0-0.1C35.9,6.7,37.7,4.9,39.9,4.9z M9,29.1c-2.3,0-4.1-1.9-4.1-4.1s1.8-4.1,4.1-4.1c0.9,0,1.6,0.3,2.3,0.8
	c1.1,0.7,1.7,1.9,1.7,3.3v0.2c0,1.3-0.7,2.5-1.7,3.3C10.6,28.8,9.9,29.1,9,29.1z M41.1,45.1c-2.2,0-4-1.7-4-3.9v-0.1
	c0-1.3,0.7-2.6,1.7-3.4c0.7-0.5,1.4-0.8,2.4-0.8c2.2,0,4.1,1.8,4.1,4.1S43.3,45.1,41.1,45.1z"/>
</svg>
