<?xml version="1.0" encoding="utf-8"?>
<!-- Generator: Adobe Illustrator 18.1.1, SVG Export Plug-In . SVG Version: 6.00 Build 0)  -->
<svg version="1.1" id="Layer_1" xmlns="http://www.w3.org/2000/svg" xmlns:xlink="http://www.w3.org/1999/xlink" x="0px" y="0px"
	 viewBox="0 0 50 50" enable-background="new 0 0 50 50" xml:space="preserve">
<g>
	<path fill="#ff1759" d="M25,0C11.2,0,0,11.2,0,25s11.2,25,25,25s25-11.2,25-25S38.8,0,25,0z M11,40.6c0.2-3.8,3.4-6.8,7.2-6.8h13.7
		c3.8,0,7,3,7.2,6.8c-3.9,3.5-8.8,5.4-14,5.4S14.8,44.1,11,40.6z M41.7,37.7c-1.4-4.1-5.3-7.1-9.9-7.1H18.2c-4.6,0-8.5,3-9.9,7.1
		C5.5,34.1,4,29.7,4,25c0-5.6,2.2-10.9,6.2-14.8c4-4,9.2-6.2,14.8-6.2s10.9,2.2,14.8,6.2c4,4,6.2,9.2,6.2,14.8
		C46,29.7,44.5,34.1,41.7,37.7z"/>
	<path fill="#ff1759" d="M25,9.1c-5.3,0-9.6,4.3-9.6,9.6s4.3,9.6,9.6,9.6s9.6-4.3,9.6-9.6S30.3,9.1,25,9.1z M25,25.1
		c-3.5,0-6.4-2.9-6.4-6.4s2.9-6.4,6.4-6.4c3.5,0,6.4,2.9,6.4,6.4S28.5,25.1,25,25.1z"/>
</g>
</svg>
