<?xml version="1.0" encoding="utf-8"?>
<!-- Generator: Adobe Illustrator 18.1.1, SVG Export Plug-In . SVG Version: 6.00 Build 0)  -->
<svg version="1.1" id="Layer_1" xmlns="http://www.w3.org/2000/svg" xmlns:xlink="http://www.w3.org/1999/xlink" x="0px" y="0px"
	 viewBox="0 0 50 50" enable-background="new 0 0 50 50" xml:space="preserve">
<g>
	<path fill="#666666" d="M25,47.6c-0.4,0-0.8-0.1-1.2-0.4C21.8,45.7,4,32.9,1.1,25C-2,16.4,1.8,6.7,9.5,3.2c4.5-2,9.8,0.1,15.5,6.3
		c5.7-6.2,11-8.3,15.5-6.3C48.2,6.7,52,16.4,48.9,25C46,32.9,28.2,45.7,26.2,47.2C25.8,47.4,25.4,47.6,25,47.6z M13,6.4
		c-0.6,0-1.2,0.1-1.8,0.4C5.3,9.5,2.4,17,4.8,23.6C6.8,29,19.1,38.8,25,43.1c5.9-4.3,18.2-14.1,20.2-19.5c2.4-6.6-0.4-14.1-6.3-16.8
		c-3.2-1.4-7.4,1.1-12.3,6.9c-0.8,0.9-2.3,0.9-3.1,0C19.4,9,15.8,6.4,13,6.4z"/>
</g>
</svg>
