<?xml version="1.0" encoding="utf-8"?>
<!-- Generator: Adobe Illustrator 18.1.1, SVG Export Plug-In . SVG Version: 6.00 Build 0)  -->
<svg version="1.1" id="Layer_1" xmlns="http://www.w3.org/2000/svg" xmlns:xlink="http://www.w3.org/1999/xlink" x="0px" y="0px"
	 viewBox="0 0 50 50" enable-background="new 0 0 50 50" xml:space="preserve">
<g>
	<path fill="#ff1759" d="M46.7,0h-15c-1.8,0-3.5,0.7-4.7,2l-25,25c-2.6,2.6-2.6,6.8,0,9.5L13.6,48c1.3,1.3,3,2,4.7,2s3.4-0.7,4.7-2
		l25-25c1.3-1.3,2-3,2-4.7v-15C50,1.5,48.5,0,46.7,0z M46,18.3c0,0.7-0.3,1.4-0.8,1.9l-25,25c-0.5,0.5-1.2,0.8-1.9,0.8
		s-1.4-0.3-1.9-0.8L4.8,33.6C4.3,33.1,4,32.4,4,31.7s0.3-1.4,0.8-1.9l25-25C30.3,4.3,30.9,4,31.7,4H46V18.3z"/>
	<path fill="#ff1759" d="M39.4,13.7c1.7,0,3.1-1.4,3.1-3.1s-1.4-3.1-3.1-3.1s-3.1,1.4-3.1,3.1S37.7,13.7,39.4,13.7z M39.4,9.4
		c0.6,0,1.1,0.5,1.1,1.1c0,0.6-0.5,1.1-1.1,1.1c-0.6,0-1.1-0.5-1.1-1.1C38.3,9.9,38.8,9.4,39.4,9.4z"/>
</g>
</svg>
