<?xml version="1.0" encoding="utf-8"?>
<!-- Generator: Adobe Illustrator 18.1.1, SVG Export Plug-In . SVG Version: 6.00 Build 0)  -->
<svg version="1.1" id="Layer_1" xmlns="http://www.w3.org/2000/svg" xmlns:xlink="http://www.w3.org/1999/xlink" x="0px" y="0px"
	 viewBox="0 0 50 50" enable-background="new 0 0 50 50" xml:space="preserve">
<g>
	<path fill="#EA005E" d="M49.4,38.3L38.8,27.6c2.3-2.9,3.7-6.6,3.7-10.6c0-9.3-7.7-17-17.1-17S8.3,7.7,8.3,17.1S16,34.2,25.4,34.2
		c4,0,7.7-1.4,10.6-3.7l10.6,10.6c0.4,0.4,0.9,0.6,1.4,0.6s1-0.2,1.4-0.6C50.2,40.3,50.2,39,49.4,38.3z M25.4,30.1
		c-7.2,0-13.1-5.9-13.1-13.1S18.2,4,25.4,4s13.1,5.9,13.1,13.1S32.6,30.1,25.4,30.1z"/>
	<path fill="#EA005E" d="M2,39.5h9.4c1.1,0,2-0.9,2-2s-0.9-2-2-2H2c-1.1,0-2,0.9-2,2S0.9,39.5,2,39.5z"/>
	<path fill="#EA005E" d="M19.7,46H2c-1.1,0-2,0.9-2,2s0.9,2,2,2h17.7c1.1,0,2-0.9,2-2S20.8,46,19.7,46z"/>
</g>
</svg>
