<?xml version="1.0" encoding="utf-8"?>
<!-- Generator: Adobe Illustrator 25.4.1, SVG Export Plug-In . SVG Version: 6.00 Build 0)  -->
<svg version="1.1" id="레이어_1" xmlns="http://www.w3.org/2000/svg" xmlns:xlink="http://www.w3.org/1999/xlink" x="0px"
	 y="0px" viewBox="0 0 500 500" style="enable-background:new 0 0 500 500;" xml:space="preserve">
<style type="text/css">
	.st0{fill:#615DEC;}
	.st1{fill:#FFFFFF;}
</style>
<g>
	<path class="st0" d="M471.59,351.52c0,13.17-0.01,26.35,0,39.52c0.01,13.49,0.06,26.99,0.07,40.48c0.01,17.09,0,34.19,0,51.28
		c0,4.63,0.03,9.26,0.01,13.9c-0.01,2.34-0.72,3.09-3.01,3.23c-1.37,0.09-2.74,0.06-4.12,0.06c-73.25,0-146.5,0.01-219.74-0.02
		c-3.07,0-6.14-0.29-9.2-0.54c-10.91-0.91-21.76-2.13-32.49-4.48c-8.2-1.8-16.25-3.86-24.09-6.95c-5.57-2.19-11.29-4.02-16.78-6.43
		c-9.57-4.2-19.06-8.51-27.86-14.27c-7.16-4.69-14.36-9.3-21.08-14.61c-0.54-0.42-1.22-0.69-1.68-1.17
		c-4.02-4.24-8.86-7.54-12.97-11.7c-4.2-4.26-8.49-8.44-12.68-12.72c-3.36-3.45-6.21-7.31-9.4-10.88
		c-5.6-6.27-9.98-13.47-14.5-20.53c-2.31-3.61-4.41-7.33-6.4-11.13c-2.47-4.71-5.11-9.31-7.33-14.15
		c-5.02-10.93-9.27-22.13-12.18-33.81c-1.53-6.15-2.97-12.32-4.24-18.52c-1.17-5.71-2.15-11.47-2.23-17.34
		c-0.01-0.86,0.06-1.75-0.14-2.57c-1.22-5.08-0.94-10.24-0.93-15.39c0.02-7.72-0.04-15.43-0.07-23.15
		c-0.02-6.52,0.38-13.05-0.02-19.54c-0.47-7.71,0.14-15.4-0.13-23.12c-0.29-8,0.45-16.08,1.52-24.1c1.41-10.55,3.47-20.96,6.3-31.18
		c2.19-7.92,4.64-15.79,7.94-23.36c5.15-11.81,11.23-23.1,17.78-34.19c4.45-7.55,9.63-14.55,14.88-21.5
		c3.29-4.36,7.13-8.32,10.89-12.3c3.77-4,7.65-7.89,11.65-11.66c3.36-3.16,6.89-6.16,10.47-9.07c4.64-3.78,9.54-7.22,14.33-10.8
		c3.47-2.59,7.25-4.56,10.92-6.72c9.01-5.3,18.09-10.51,27.66-14.74c4.53-2,9.24-3.62,13.95-5.17c6.34-2.09,12.7-4.15,19.15-5.84
		c4.62-1.21,9.4-1.79,14.1-2.63c2.02-0.36,4.03-0.72,6.06-1.04c9.48-1.51,18.99-2.37,28.61-2.56c4.45-0.09,8.85-0.26,13.29,0.34
		c2.7,0.36,5.49,0.24,8.22,0.07c5.19-0.32,10.22,0.44,15.26,1.56c4.51,1,9.07,1.77,13.62,2.56c8.11,1.42,15.96,3.82,23.82,6.2
		c9.2,2.78,18.08,6.39,26.85,10.25c4.06,1.79,7.84,4.21,11.72,6.39c11.37,6.38,22.05,13.79,32.3,21.83
		c3.9,3.06,7.45,6.56,11.08,9.94c2.26,2.1,4.35,4.39,6.58,6.53c7.81,7.5,14.58,15.89,20.92,24.64c3.42,4.71,6.94,9.38,10,14.31
		c5.7,9.18,10.85,18.64,14.87,28.74c2.6,6.53,5.1,13.1,7.65,19.64c1.94,4.97,3,10.18,4.56,15.23c1.78,5.79,1.98,11.83,3.59,17.62
		c0.73,2.61,0.97,5.4,1.14,8.13c0.37,5.99,1.44,11.91,1.4,17.95C471.38,225,471.62,238,471.65,251c0.04,17.09,0,34.19,0,51.28
		c0,16.41,0,32.83,0,49.24C471.63,351.52,471.61,351.52,471.59,351.52z"/>
	<path class="st1" d="M339.48,321.59c0-27.33,0.07-54.66-0.03-81.99c-0.05-13.29-2.08-26.31-7.42-38.54
		c-5.33-12.21-12.67-23.1-22.78-31.98c-10.05-8.83-21.3-15.38-34.25-18.97c-8.44-2.33-16.94-4.02-25.74-3.79
		c-13.49,0.35-26.38,3.11-38.57,9.17c-16.12,8-28.73,19.74-37.8,35.19c-7.03,11.97-11.31,24.92-11.94,38.92
		c-0.02,0.34,0.02,0.69-0.04,1.03c-0.76,4.61,0.35,5.06-5.51,5.04c-10.98-0.05-21.96-0.01-32.94-0.02c-1.03,0-2.06,0-3.09-0.04
		c-1.19-0.05-1.93-0.64-1.94-1.89c-0.01-2.06-0.1-4.13,0.06-6.18c0.61-7.52,1.75-14.99,3.45-22.33c1.19-5.16,2.88-10.22,4.59-15.24
		c2.27-6.68,5.45-13,8.96-19.07c5.67-9.79,12.13-19.04,20.26-27.06c7.35-7.25,15.12-13.93,23.8-19.51
		c11.46-7.36,23.73-12.93,36.87-16.48c7.6-2.05,15.29-3.72,23.18-4.16c10.96-0.61,21.92-0.66,32.77,1.32
		c9.08,1.66,18.02,3.88,26.65,7.29c6.39,2.52,12.46,5.69,18.46,8.96c7.06,3.85,13.56,8.61,19.54,14.04
		c7.36,6.7,14.26,13.76,20.11,21.92c4.81,6.71,9.39,13.52,12.86,21.01c4.53,9.79,8.07,19.89,10.17,30.55
		c2.04,10.32,3.01,20.67,3.02,31.15c0.03,40.22,0.01,80.44,0.02,120.66c0,7.11-0.6,6.31,6.36,6.34c7.37,0.04,14.74,0.01,22.1,0.01
		c1.03,0,2.06-0.03,3.09,0.04c1.55,0.12,2.19,0.71,2.33,2.18c0.1,1.02,0.09,2.06,0.09,3.09c0.01,11,0,22,0,33
		c0,0.69,0.01,1.38-0.02,2.06c-0.12,2.38-0.44,2.74-2.65,2.85c-1.2,0.06-2.4,0.04-3.6,0.04c-21.44,0-42.89,0-64.33,0
		c-0.34,0-0.69,0-1.03,0c-5.1,0-5.08,0.21-5.08-5.09C339.48,377.28,339.48,349.44,339.48,321.59z"/>
	<path class="st1" d="M286.98,277.59c-0.24,19.36-15.53,36.64-36.67,36.87c-20.97,0.22-37.59-16.04-37.22-37.6
		c0.36-20.77,16.12-36.67,37.45-36.32C272.51,240.9,286.36,258.29,286.98,277.59z"/>
</g>
</svg>
