<svg id="레이어_1" data-name="레이어 1" xmlns="http://www.w3.org/2000/svg" viewBox="0 0 443.35 500" height="43"><defs><style>.cls-1{fill:#615dec;}.cls-2{fill:#fff;}</style></defs><path class="cls-1" d="M471.59,351.52q0,19.77,0,39.52,0,20.25.07,40.48,0,25.65,0,51.29c0,4.63,0,9.26,0,13.89,0,2.34-.72,3.09-3,3.24-1.37.08-2.75.06-4.12.06q-109.87,0-219.74,0c-3.07,0-6.14-.28-9.21-.54A247.37,247.37,0,0,1,203.1,495,156.72,156.72,0,0,1,179,488c-5.57-2.19-11.29-4-16.78-6.43-9.57-4.2-19.06-8.52-27.86-14.28-7.16-4.68-14.36-9.3-21.08-14.6a14.73,14.73,0,0,1-1.68-1.17c-4-4.24-8.86-7.54-13-11.7s-8.5-8.44-12.68-12.73c-3.36-3.44-6.21-7.3-9.4-10.88-5.61-6.27-10-13.47-14.51-20.53-2.31-3.6-4.41-7.33-6.4-11.13-2.46-4.71-5.11-9.31-7.33-14.15a191.86,191.86,0,0,1-12.18-33.81c-1.53-6.15-3-12.32-4.24-18.52a91.88,91.88,0,0,1-2.23-17.34,11.54,11.54,0,0,0-.14-2.57c-1.22-5.07-.94-10.24-.93-15.38,0-7.72,0-15.44-.06-23.15,0-6.52.38-13,0-19.54-.47-7.71.14-15.41-.13-23.12a143.59,143.59,0,0,1,1.52-24.1,230.19,230.19,0,0,1,6.3-31.18,174.6,174.6,0,0,1,7.94-23.36,314.81,314.81,0,0,1,17.77-34.2,230.23,230.23,0,0,1,14.89-21.5A149.11,149.11,0,0,1,87.7,70.33q5.65-6,11.65-11.66c3.36-3.16,6.89-6.16,10.47-9.07,4.64-3.78,9.54-7.22,14.33-10.8a114.37,114.37,0,0,1,10.92-6.72,271.52,271.52,0,0,1,27.67-14.74c4.52-2,9.24-3.62,13.95-5.17C183,10.08,189.38,8,195.84,6.33c4.61-1.21,9.39-1.79,14.1-2.64,2-.36,4-.72,6.06-1A207.46,207.46,0,0,1,244.6.09a86.89,86.89,0,0,1,13.3.34,42.57,42.57,0,0,0,8.22.07,54.45,54.45,0,0,1,15.26,1.56c4.51,1,9.07,1.77,13.62,2.56C303.11,6,311,8.44,318.82,10.82a237.67,237.67,0,0,1,26.84,10.25c4.06,1.78,7.84,4.21,11.72,6.39a254.34,254.34,0,0,1,32.3,21.82c3.89,3.06,7.44,6.56,11.08,9.94,2.26,2.11,4.35,4.4,6.58,6.54a181.29,181.29,0,0,1,20.91,24.63c3.42,4.71,6.94,9.38,10,14.32a182.48,182.48,0,0,1,14.86,28.73c2.6,6.53,5.1,13.1,7.66,19.64,1.93,5,3,10.18,4.55,15.24,1.79,5.79,2,11.82,3.6,17.61a40.23,40.23,0,0,1,1.14,8.13c.37,6,1.43,11.91,1.39,17.95-.08,13,.16,26,.19,39,0,17.09,0,34.19,0,51.28q0,24.62,0,49.24Z" transform="translate(-28.33)"/><path class="cls-2" d="M339.48,321.59c0-27.32.06-54.65,0-82-.05-13.29-2.08-26.32-7.42-38.55s-12.67-23.1-22.77-32a86.42,86.42,0,0,0-34.25-19c-8.44-2.34-16.95-4-25.75-3.8a90.75,90.75,0,0,0-38.57,9.17,88.6,88.6,0,0,0-37.8,35.19A83.54,83.54,0,0,0,161,229.6a8.86,8.86,0,0,1,0,1c-.76,4.61.34,5.06-5.51,5-11,0-22,0-32.94,0-1,0-2.06,0-3.09,0a1.77,1.77,0,0,1-1.94-1.9c0-2.06-.1-4.13.07-6.18A155.49,155.49,0,0,1,121,205.21c1.2-5.16,2.89-10.22,4.6-15.24a107,107,0,0,1,9-19.07c5.67-9.79,12.13-19,20.26-27.06a147.85,147.85,0,0,1,23.8-19.51,131.63,131.63,0,0,1,36.87-16.48,113.88,113.88,0,0,1,23.18-4.16c11-.61,21.92-.66,32.77,1.33A141.18,141.18,0,0,1,298,112.31a164.5,164.5,0,0,1,18.46,9,101.22,101.22,0,0,1,19.54,14,140.32,140.32,0,0,1,20.1,21.92c4.82,6.72,9.39,13.52,12.86,21a134.41,134.41,0,0,1,10.17,30.55,160.74,160.74,0,0,1,3,31.15q0,60.33,0,120.66c0,7.11-.6,6.3,6.36,6.34,7.37,0,14.74,0,22.11,0,1,0,2.06,0,3.08,0,1.56.12,2.2.71,2.33,2.19.1,1,.09,2.06.1,3.09v33c0,.68,0,1.37,0,2.06-.13,2.38-.45,2.74-2.65,2.85-1.2.06-2.4,0-3.6,0H344.55c-5.1,0-5.08.21-5.08-5.09Q339.49,363.35,339.48,321.59Z" transform="translate(-28.33)"/><path class="cls-2" d="M287,277.59c-.24,19.36-15.54,36.65-36.68,36.87-21,.23-37.59-16-37.21-37.59.36-20.77,16.11-36.67,37.44-36.32C272.51,240.9,286.36,258.29,287,277.59Z" transform="translate(-28.33)"/></svg>